if (_typeface_js && _typeface_js.loadFace) _typeface_js.loadFace({"glyphs":{"S":{"x_min":69.75,"x_max":656,"ha":712,"o":"m 656 255 q 646 193 656 225 q 619 130 637 161 q 573 72 601 100 q 508 24 545 45 q 423 -7 470 4 q 318 -20 376 -20 q 262 -15 294 -20 q 198 -2 231 -10 q 134 18 165 6 q 79 46 102 30 q 73 59 75 47 q 70 89 71 71 q 69 130 69 107 q 71 176 70 152 q 76 221 73 199 q 84 260 79 243 l 132 257 q 169 184 147 217 q 220 127 192 150 q 279 90 247 103 q 345 77 311 77 q 404 85 376 77 q 454 111 433 94 q 489 152 476 127 q 503 209 503 177 q 484 281 503 251 q 436 334 466 311 q 368 377 406 358 q 289 414 329 396 q 211 454 249 433 q 142 502 172 474 q 94 565 112 529 q 76 651 76 601 q 93 722 76 683 q 149 794 111 761 q 245 851 186 828 q 386 875 304 875 q 457 870 422 875 q 523 857 493 865 q 577 837 554 849 q 613 812 600 826 q 614 800 616 809 q 608 778 613 790 q 597 750 604 765 q 582 721 590 735 q 567 697 575 708 q 554 681 560 686 l 510 685 q 475 739 495 717 q 435 773 456 760 q 392 791 414 786 q 351 797 370 797 q 294 788 318 797 q 254 764 270 779 q 232 730 239 749 q 225 693 225 712 q 243 636 225 661 q 292 590 262 611 q 361 550 322 569 q 440 510 399 531 q 519 466 481 490 q 588 413 558 443 q 637 344 618 383 q 656 255 656 306 "},"/":{"x_min":23.734375,"x_max":637.53125,"ha":661,"o":"m 164 -187 q 142 -198 157 -192 q 110 -209 127 -203 q 77 -219 93 -214 q 53 -227 61 -224 l 23 -205 l 499 1047 q 522 1058 507 1053 q 552 1069 537 1063 q 582 1078 568 1074 q 607 1085 597 1082 l 637 1065 l 164 -187 "},"K":{"x_min":29.078125,"x_max":857.640625,"ha":859,"o":"m 29 0 l 29 49 q 98 70 75 59 q 122 90 122 81 l 122 763 q 99 783 122 771 q 29 805 77 795 l 29 855 l 385 855 l 385 805 q 315 784 339 795 q 292 763 292 772 l 292 446 l 544 745 q 566 774 559 763 q 569 791 572 785 q 550 800 565 797 q 509 805 535 803 l 509 855 l 814 855 l 814 805 q 777 800 792 802 q 750 792 762 797 q 729 781 738 788 q 709 763 719 774 l 418 458 l 745 111 q 767 92 755 99 q 792 84 778 86 q 820 82 805 81 q 852 84 835 82 l 857 34 q 813 20 837 28 q 764 6 789 13 q 717 -5 740 0 q 679 -10 695 -10 q 644 -3 659 -10 q 615 19 629 2 l 292 423 l 292 90 q 314 70 292 82 q 385 49 336 59 l 385 0 l 29 0 "},"7":{"x_min":65.78125,"x_max":651.09375,"ha":703,"o":"m 651 791 q 589 643 619 718 q 530 497 558 569 q 476 358 501 425 q 428 230 450 290 q 388 121 406 171 q 359 35 370 71 q 328 19 347 27 q 288 3 309 11 q 246 -9 267 -3 q 208 -20 225 -15 l 175 7 q 280 199 234 111 q 365 368 326 287 q 440 528 404 449 q 512 694 475 607 l 209 694 q 188 691 199 694 q 165 679 177 689 q 139 646 153 668 q 111 585 126 624 l 65 602 q 71 648 67 618 q 80 710 75 678 q 90 772 85 743 q 99 817 95 802 l 628 817 l 651 791 "},"d":{"x_min":44,"x_max":773.8125,"ha":779,"o":"m 773 77 q 710 38 742 56 q 651 8 678 21 q 602 -12 623 -5 q 572 -20 581 -20 q 510 98 523 -20 q 452 44 478 66 q 401 7 426 22 q 349 -13 376 -6 q 292 -20 323 -20 q 202 2 246 -20 q 122 65 157 24 q 65 166 87 106 q 44 301 44 226 q 68 432 44 369 q 135 544 92 495 q 240 621 179 592 q 373 651 300 651 q 436 643 405 651 q 505 610 468 636 l 505 843 q 503 902 505 880 q 494 936 502 924 q 467 952 486 948 q 412 960 448 957 l 412 1006 q 546 1026 486 1014 q 642 1051 606 1039 l 668 1025 l 668 203 q 669 163 668 179 q 671 136 670 146 q 676 120 673 126 q 683 112 679 115 q 692 109 687 110 q 704 109 697 108 q 724 114 712 110 q 754 127 736 118 l 773 77 m 505 182 l 505 478 q 444 539 480 517 q 362 561 408 561 q 300 548 328 561 q 251 507 272 535 q 218 438 230 480 q 207 337 207 396 q 220 241 207 283 q 255 169 234 199 q 305 124 277 140 q 360 109 332 109 q 431 127 397 109 q 505 182 465 146 "},",":{"x_min":59.234375,"x_max":325,"ha":374,"o":"m 325 47 q 309 -31 325 10 q 267 -115 293 -73 q 204 -194 240 -156 q 127 -258 168 -231 l 81 -224 q 141 -132 119 -179 q 163 -25 163 -84 q 156 4 163 -10 q 138 30 150 19 q 109 47 126 41 q 70 52 91 53 l 59 104 q 76 117 63 110 q 107 132 89 125 q 148 148 126 140 q 190 162 169 156 q 230 172 211 169 q 259 176 248 176 q 308 130 292 160 q 325 47 325 101 "},"Y":{"x_min":-0.46875,"x_max":828.078125,"ha":851,"o":"m 233 0 l 233 49 q 284 62 264 55 q 317 75 305 69 q 334 87 329 81 q 340 98 340 93 l 340 358 q 285 470 315 412 q 223 581 254 527 q 162 681 192 635 q 108 759 132 727 q 95 773 102 766 q 77 783 89 779 q 48 789 66 787 q 2 792 30 792 l 0 841 q 44 848 19 844 q 95 854 70 851 q 142 858 120 856 q 178 861 164 861 q 216 852 197 861 q 247 829 235 844 q 299 752 272 795 q 355 660 327 709 q 410 560 383 611 q 461 460 437 509 l 619 760 q 613 788 630 778 q 544 805 596 798 l 544 855 l 828 855 l 828 805 q 759 787 781 796 q 727 760 737 777 l 510 354 l 510 98 q 514 88 510 94 q 531 76 519 82 q 564 62 543 69 q 617 49 585 55 l 617 0 l 233 0 "},"E":{"x_min":29.15625,"x_max":697.890625,"ha":730,"o":"m 697 205 q 691 144 695 176 q 684 83 688 112 q 676 32 680 54 q 670 0 672 10 l 29 0 l 29 49 q 98 70 75 59 q 122 90 122 81 l 122 763 q 100 783 122 771 q 29 805 78 795 l 29 855 l 626 855 l 653 833 q 649 788 652 815 q 642 734 647 762 q 634 681 638 706 q 626 644 630 656 l 575 644 q 558 740 571 707 q 519 774 544 774 l 291 774 l 291 499 l 561 499 l 583 475 q 570 453 578 465 q 554 428 562 440 q 537 405 545 416 q 521 389 529 395 q 499 406 511 399 q 472 418 487 413 q 436 424 457 422 q 387 427 415 427 l 291 427 l 291 124 q 296 106 291 114 q 316 92 301 98 q 358 84 330 87 q 430 81 385 81 l 497 81 q 550 88 528 81 q 589 112 572 95 q 620 156 606 129 q 648 223 634 183 l 697 205 "},"y":{"x_min":-42.046875,"x_max":696.53125,"ha":705,"o":"m 696 581 q 663 572 676 576 q 642 563 650 568 q 629 551 634 558 q 621 535 625 545 l 395 -50 q 332 -178 366 -125 q 260 -266 298 -232 q 181 -317 222 -301 q 96 -334 139 -334 q 45 -329 70 -334 q 1 -317 20 -324 q -30 -302 -18 -310 q -42 -287 -42 -293 q -30 -264 -42 -281 q -3 -227 -18 -247 q 29 -190 12 -207 q 57 -165 46 -172 q 125 -192 91 -187 q 185 -188 160 -197 q 239 -149 210 -179 q 291 -62 267 -120 l 311 -15 l 84 535 q 59 563 76 553 q 8 581 42 574 l 8 631 l 316 631 l 316 581 q 275 574 289 578 q 255 565 261 570 q 249 553 248 560 q 255 535 250 546 l 394 194 l 527 535 q 532 552 531 545 q 528 564 533 559 q 510 573 523 569 q 474 581 497 577 l 474 631 l 696 631 l 696 581 "},"\"":{"x_min":93.59375,"x_max":558.171875,"ha":651,"o":"m 235 565 q 219 559 229 562 q 195 555 208 557 q 170 552 182 553 q 149 551 158 551 l 93 946 q 110 954 98 949 q 139 965 123 959 q 172 978 154 972 q 205 989 189 984 q 233 998 221 995 q 250 1004 245 1002 l 284 984 l 235 565 m 508 565 q 492 559 503 562 q 468 555 481 557 q 443 552 455 553 q 423 551 431 551 l 366 946 q 397 960 374 951 q 445 978 419 969 q 493 995 471 987 q 523 1004 516 1002 l 558 984 l 508 565 "},"g":{"x_min":10,"x_max":716.828125,"ha":718,"o":"m 453 406 q 443 471 453 441 q 417 524 434 501 q 373 559 399 546 q 312 573 347 573 q 278 565 295 573 q 246 541 260 557 q 223 502 232 526 q 214 446 214 478 q 222 382 214 412 q 247 329 230 352 q 291 294 264 307 q 354 281 317 281 q 391 288 373 281 q 423 312 409 296 q 444 351 436 327 q 453 406 453 374 m 377 -28 q 316 -18 344 -24 q 262 -7 287 -13 q 213 -46 231 -29 q 186 -77 195 -63 q 175 -102 177 -91 q 173 -123 173 -113 q 189 -166 173 -146 q 235 -203 206 -187 q 304 -227 264 -218 q 390 -237 343 -237 q 459 -227 430 -237 q 507 -200 488 -217 q 536 -161 527 -183 q 546 -116 546 -140 q 539 -90 546 -103 q 515 -66 533 -77 q 463 -44 497 -54 q 377 -28 430 -34 m 609 434 q 585 339 609 382 q 524 265 562 296 q 434 217 485 234 q 327 200 383 200 l 320 200 q 287 161 294 176 q 280 143 280 147 q 284 131 280 136 q 304 119 288 125 q 350 107 319 113 q 434 94 381 101 q 565 70 513 84 q 648 35 617 55 q 691 -11 679 15 q 704 -71 704 -37 q 689 -134 704 -102 q 649 -196 674 -166 q 588 -250 623 -225 q 513 -294 554 -275 q 429 -323 473 -313 q 342 -334 385 -334 q 268 -329 307 -334 q 193 -315 230 -325 q 123 -291 156 -306 q 64 -256 90 -277 q 24 -209 39 -235 q 10 -150 10 -182 q 17 -115 10 -133 q 43 -78 24 -98 q 95 -34 62 -58 q 180 17 128 -11 q 103 83 103 48 q 109 103 103 90 q 130 132 116 116 q 169 169 145 149 q 226 212 192 189 q 157 241 188 223 q 104 284 126 259 q 70 341 82 309 q 58 408 58 372 q 82 502 58 457 q 147 579 106 546 q 242 631 188 612 q 354 651 295 651 q 442 638 401 651 q 515 603 482 625 q 622 625 574 610 q 697 651 670 640 l 716 625 q 710 608 714 618 q 700 587 705 598 q 690 566 695 577 q 678 547 684 556 q 631 541 655 543 q 579 537 607 538 q 601 487 593 513 q 609 434 609 462 "},"e":{"x_min":44,"x_max":628,"ha":672,"o":"m 346 570 q 291 557 314 570 q 252 522 268 545 q 227 466 236 499 q 214 393 218 433 l 440 393 q 460 398 455 393 q 466 417 466 403 q 460 464 466 437 q 441 513 455 490 q 404 553 427 537 q 346 570 381 570 m 628 372 q 610 357 621 365 q 585 342 598 349 q 557 327 571 334 q 532 317 543 321 l 212 317 q 225 227 213 268 q 258 156 237 186 q 311 110 280 127 q 382 94 342 94 q 423 96 403 94 q 466 107 443 98 q 519 132 490 116 q 588 176 548 148 q 598 167 592 174 q 609 154 604 161 q 618 141 614 147 q 624 132 622 135 q 539 55 577 85 q 468 8 502 25 q 400 -13 434 -7 q 325 -20 366 -20 q 216 3 267 -20 q 127 68 165 26 q 66 169 88 110 q 44 299 44 228 q 78 464 44 392 q 183 587 113 536 q 223 612 201 600 q 269 632 245 623 q 319 645 293 640 q 370 651 345 651 q 485 627 437 651 q 565 566 534 604 q 612 477 597 528 q 628 372 628 427 "},"J":{"x_min":-180.109375,"x_max":422.59375,"ha":465,"o":"m 422 805 q 352 784 376 795 q 329 763 329 772 l 329 123 q 314 -4 329 49 q 275 -96 299 -57 q 223 -162 252 -135 q 168 -211 195 -189 q 127 -239 150 -226 q 80 -262 104 -252 q 30 -278 55 -272 q -17 -284 5 -284 q -77 -276 -47 -284 q -128 -259 -106 -269 q -165 -238 -151 -249 q -180 -219 -180 -227 q -165 -195 -180 -212 q -132 -161 -151 -178 q -94 -128 -113 -143 q -66 -110 -75 -114 q 4 -156 -28 -143 q 62 -170 36 -170 q 96 -161 79 -170 q 128 -127 114 -153 q 150 -53 142 -101 q 159 75 159 -5 l 159 763 q 154 772 159 767 q 136 782 150 776 q 97 793 122 787 q 32 805 72 799 l 32 855 l 422 855 l 422 805 "},"|":{"x_min":112,"x_max":227,"ha":319,"o":"m 227 -234 q 209 -246 220 -240 q 186 -257 198 -251 q 161 -267 173 -262 q 141 -275 149 -272 l 112 -254 l 112 1095 q 154 1117 130 1106 q 197 1133 178 1127 l 227 1113 l 227 -234 "},"^":{"x_min":67.828125,"x_max":615.140625,"ha":684,"o":"m 615 430 q 582 404 598 414 q 543 383 566 393 l 518 401 l 326 891 l 156 430 q 139 416 149 423 q 120 403 130 409 q 100 391 109 396 q 83 383 90 386 l 67 401 l 286 991 q 306 1007 294 999 q 330 1024 318 1016 q 354 1039 342 1032 q 376 1051 366 1046 l 615 430 "},"q":{"x_min":44,"x_max":752.859375,"ha":762,"o":"m 356 109 q 427 127 393 109 q 501 183 460 146 l 501 474 q 472 509 489 494 q 437 537 456 525 q 397 554 418 548 q 358 561 377 561 q 298 548 325 561 q 250 509 270 535 q 218 441 230 483 q 207 342 207 399 q 219 241 207 284 q 253 168 232 197 q 301 123 274 138 q 356 109 328 109 m 385 -326 l 385 -276 q 475 -256 449 -266 q 501 -234 501 -245 l 501 94 q 443 41 470 63 q 391 6 417 20 q 337 -13 365 -7 q 277 -20 310 -20 q 196 2 237 -20 q 121 65 154 24 q 65 166 87 106 q 44 301 44 226 q 58 407 44 360 q 96 490 73 454 q 147 551 119 526 q 198 592 174 576 q 239 615 217 604 q 284 634 261 625 q 330 646 307 642 q 374 651 353 651 q 412 648 393 651 q 450 637 431 645 q 492 615 470 629 q 538 576 513 600 q 573 595 554 584 q 608 615 591 605 q 639 635 625 625 q 659 651 652 644 l 685 625 q 674 579 678 604 q 667 529 670 557 q 664 471 664 501 l 664 -234 q 668 -245 664 -239 q 682 -256 672 -250 q 709 -266 692 -261 q 752 -276 727 -271 l 752 -326 l 385 -326 "},"b":{"x_min":2.25,"x_max":695,"ha":746,"o":"m 545 282 q 533 397 545 349 q 501 475 521 445 q 453 520 480 506 q 394 534 425 534 q 334 517 371 534 q 248 459 297 501 l 248 148 q 343 106 302 119 q 404 94 385 94 q 466 108 440 94 q 510 149 492 123 q 536 208 528 174 q 545 282 545 242 m 695 343 q 680 262 695 304 q 641 179 666 219 q 582 103 616 139 q 508 39 547 66 q 425 -4 469 11 q 338 -20 381 -20 q 291 -13 320 -20 q 229 4 263 -7 q 158 31 196 15 q 85 65 121 47 l 85 858 q 82 906 85 889 q 71 932 80 923 q 46 943 62 940 q 2 949 30 945 l 2 996 q 62 1007 34 1002 q 116 1018 90 1012 q 167 1033 142 1025 q 218 1051 192 1040 q 225 1043 220 1048 q 235 1034 230 1039 q 248 1023 241 1029 l 247 543 q 314 593 281 572 q 377 626 347 613 q 433 645 407 639 q 478 651 458 651 q 568 629 528 651 q 636 567 608 607 q 679 471 664 527 q 695 343 695 414 "},"D":{"x_min":20.265625,"x_max":828,"ha":884,"o":"m 828 458 q 810 306 828 373 q 763 188 793 240 q 693 102 733 137 q 608 43 653 66 q 514 10 562 21 q 419 0 465 0 l 29 0 l 29 49 q 98 70 75 59 q 122 90 122 81 l 122 784 l 29 771 l 20 834 q 99 849 53 842 q 195 863 145 857 q 296 871 246 868 q 391 875 347 875 q 577 846 495 875 q 714 765 658 818 q 798 634 769 711 q 828 458 828 556 m 343 803 q 318 802 331 803 q 292 802 305 802 l 292 113 q 293 104 292 108 q 300 90 295 96 q 317 81 305 85 q 347 75 328 77 q 394 73 366 73 q 449 81 420 73 q 506 109 477 90 q 559 157 534 128 q 603 226 585 186 q 634 317 622 266 q 646 432 646 368 q 626 591 646 522 q 568 707 606 660 q 473 778 530 754 q 343 803 417 803 "},"z":{"x_min":41.375,"x_max":607.015625,"ha":650,"o":"m 598 224 q 597 189 598 209 q 597 147 597 169 q 596 102 596 125 q 594 59 595 79 q 592 23 593 39 q 590 0 591 8 l 59 0 l 41 30 l 400 550 l 223 550 q 167 516 193 550 q 124 407 141 482 l 75 421 l 92 642 q 120 635 107 637 q 145 632 132 633 q 174 631 158 631 l 592 631 l 607 601 l 246 81 l 479 81 q 500 91 491 81 q 517 122 510 102 q 533 170 525 142 q 550 235 541 199 l 598 224 "},"w":{"x_min":8.8125,"x_max":986.8125,"ha":996,"o":"m 986 581 q 955 572 967 576 q 936 563 944 567 q 925 553 929 559 q 918 539 921 547 l 769 40 q 752 14 765 25 q 724 -2 739 4 q 694 -13 709 -9 q 671 -20 680 -17 l 498 376 l 360 40 q 343 14 355 24 q 316 -3 330 3 q 288 -14 302 -10 q 265 -20 274 -17 l 82 539 q 60 562 78 551 q 8 581 42 574 l 8 631 l 316 631 l 316 581 q 270 573 286 578 q 247 563 254 569 q 239 551 240 557 q 241 539 239 545 l 343 219 l 505 631 l 557 631 l 727 219 l 825 539 q 827 553 828 546 q 821 564 827 559 q 802 573 815 569 q 766 581 789 577 l 766 631 l 986 631 l 986 581 "},"$":{"x_min":52.171875,"x_max":645,"ha":702,"o":"m 193 645 q 201 606 193 623 q 226 576 210 589 q 262 551 241 562 q 309 529 283 540 l 309 740 q 259 729 281 738 q 223 708 238 721 q 200 679 208 695 q 193 645 193 662 m 503 215 q 494 262 503 241 q 470 300 486 283 q 435 330 455 316 q 390 354 414 343 l 390 93 q 432 106 412 97 q 468 130 452 115 q 493 166 484 145 q 503 215 503 187 m 390 -86 q 363 -105 377 -97 q 331 -118 348 -113 l 309 -98 l 309 -6 q 184 17 251 -4 q 59 75 118 38 q 54 89 56 77 q 52 120 52 102 q 52 160 51 138 q 54 204 53 182 q 58 245 56 225 q 64 276 61 264 l 114 274 q 149 209 130 239 q 193 156 169 179 q 245 118 217 133 q 309 95 274 102 l 309 386 q 218 419 263 402 q 136 462 172 436 q 78 523 100 487 q 56 613 56 559 q 68 676 56 642 q 110 739 80 709 q 187 792 139 770 q 309 820 236 814 l 309 909 q 324 919 318 915 q 337 927 331 924 q 350 933 343 930 q 367 939 356 936 l 390 919 l 390 822 q 460 813 425 820 q 526 797 495 807 q 580 776 556 788 q 616 752 604 764 q 615 727 620 747 q 600 682 610 706 q 579 636 591 658 q 559 605 568 614 l 512 611 q 460 689 489 658 q 390 733 430 719 l 390 500 q 480 464 435 483 q 563 416 526 445 q 622 348 599 388 q 645 251 645 308 q 630 169 645 210 q 585 92 616 128 q 506 32 555 57 q 390 -1 458 6 l 390 -86 "},"\\":{"x_min":27.125,"x_max":623.96875,"ha":651,"o":"m 595 -227 q 572 -219 587 -224 q 541 -209 557 -214 q 512 -198 526 -203 q 492 -187 498 -192 l 27 1065 l 57 1085 q 81 1078 67 1082 q 109 1069 94 1074 q 136 1058 123 1063 q 159 1047 149 1053 l 623 -205 l 595 -227 "},"~":{"x_min":33.234375,"x_max":644.3125,"ha":678,"o":"m 644 525 q 608 456 630 492 q 559 391 586 421 q 502 343 533 362 q 438 324 471 324 q 378 341 410 324 q 313 378 346 358 q 248 415 280 398 q 187 433 216 433 q 125 406 153 433 q 69 322 97 379 l 33 340 q 69 409 47 373 q 118 475 91 445 q 175 523 145 504 q 238 543 206 543 q 302 525 269 543 q 367 488 335 508 q 431 451 400 468 q 489 434 461 434 q 550 460 521 434 q 608 542 579 486 l 644 525 "},"-":{"x_min":35.953125,"x_max":457.796875,"ha":494,"o":"m 457 376 q 451 357 455 368 q 442 335 447 346 q 433 314 438 324 q 426 299 429 304 l 57 299 l 35 320 q 41 338 37 328 q 50 359 45 349 q 59 380 54 370 q 67 397 63 390 l 435 397 l 457 376 "},"Q":{"x_min":37,"x_max":960.609375,"ha":864,"o":"m 641 426 q 624 561 641 496 q 577 677 607 626 q 504 757 546 727 q 409 787 461 787 q 323 762 360 787 q 260 693 285 738 q 221 583 234 648 q 209 434 209 517 q 226 292 209 358 q 275 176 244 225 q 347 99 306 127 q 435 71 388 71 q 517 92 479 71 q 582 158 555 114 q 625 270 609 203 q 641 426 641 337 m 960 -84 q 925 -139 944 -114 q 888 -182 907 -164 q 854 -211 870 -201 q 828 -222 838 -222 q 764 -211 796 -222 q 701 -183 733 -201 q 637 -144 668 -166 q 573 -100 605 -122 q 508 -55 540 -77 q 444 -18 476 -34 q 424 -19 435 -19 q 405 -20 414 -20 q 253 15 321 -20 q 137 111 185 51 q 63 249 89 171 q 37 415 37 328 q 67 590 37 507 q 151 737 97 674 q 280 837 205 800 q 444 875 355 875 q 602 838 534 875 q 717 739 670 801 q 788 600 764 678 q 812 438 812 521 q 793 305 812 370 q 742 186 775 241 q 663 87 708 131 q 563 17 618 44 q 637 -14 601 3 q 705 -48 672 -32 q 770 -76 738 -65 q 832 -88 801 -88 q 849 -86 840 -88 q 868 -79 857 -84 q 892 -64 878 -74 q 927 -40 907 -55 l 960 -84 "},"M":{"x_min":35.953125,"x_max":1125.84375,"ha":1176,"o":"m 1107 805 q 1067 800 1090 805 q 1020 786 1045 795 l 1027 90 q 1052 70 1027 82 q 1125 49 1077 59 l 1125 0 l 771 0 l 771 49 q 844 70 817 59 q 871 90 871 81 l 866 642 l 578 0 l 514 0 l 232 641 l 227 90 q 249 70 227 82 q 320 49 271 59 l 320 0 l 35 0 l 35 49 q 105 70 82 59 q 128 90 128 81 l 135 781 q 87 800 111 795 q 42 805 62 805 l 42 855 l 277 855 q 289 852 284 855 q 300 844 295 850 q 311 827 305 838 q 325 798 317 816 l 575 231 l 829 798 q 844 829 838 818 q 855 846 850 840 q 866 853 861 852 q 877 855 871 855 l 1107 855 l 1107 805 "},"C":{"x_min":37,"x_max":726.484375,"ha":775,"o":"m 726 143 q 641 68 683 99 q 557 17 598 37 q 476 -11 516 -2 q 397 -20 436 -20 q 264 8 329 -20 q 148 90 199 36 q 67 221 98 144 q 37 397 37 299 q 70 594 37 506 q 162 745 103 682 q 299 841 220 807 q 468 875 377 875 q 541 869 505 875 q 609 854 577 864 q 669 833 642 845 q 713 806 695 821 q 713 794 716 804 q 704 770 710 784 q 689 739 698 755 q 672 707 681 722 q 655 679 663 692 q 642 662 647 667 l 598 671 q 519 758 563 731 q 421 785 474 785 q 374 777 398 785 q 325 753 349 770 q 280 708 301 736 q 243 641 259 681 q 218 547 227 601 q 209 422 209 493 q 231 273 209 335 q 290 170 254 211 q 372 111 327 130 q 461 92 417 92 q 505 96 480 92 q 559 111 529 100 q 622 141 588 122 q 691 189 655 159 q 700 180 694 186 q 710 165 705 173 q 720 152 715 158 q 726 143 724 145 "},"[":{"x_min":85,"x_max":451.9375,"ha":469,"o":"m 451 -154 q 447 -170 450 -160 q 440 -191 443 -180 q 433 -211 437 -202 q 426 -227 429 -220 l 85 -227 l 85 1085 l 422 1085 l 450 1062 q 445 1043 449 1054 q 439 1020 442 1031 q 432 1000 435 1009 q 426 987 428 991 l 241 987 l 241 -129 l 422 -129 l 451 -154 "},"L":{"x_min":29.078125,"x_max":691.46875,"ha":707,"o":"m 691 205 q 685 144 688 176 q 677 83 681 112 q 670 32 673 54 q 663 0 666 10 l 29 0 l 29 49 q 98 70 75 59 q 122 90 122 81 l 122 763 q 99 783 122 771 q 29 805 77 795 l 29 855 l 385 855 l 385 805 q 315 784 339 795 q 292 763 292 772 l 292 131 q 297 109 292 119 q 317 94 303 100 q 356 84 332 87 q 418 81 380 81 l 494 81 q 547 88 525 81 q 584 112 568 95 q 614 156 601 129 q 641 223 627 183 l 691 205 "},"!":{"x_min":101,"x_max":323,"ha":429,"o":"m 323 89 q 313 40 323 62 q 286 3 303 18 q 246 -19 269 -11 q 199 -27 224 -27 q 161 -21 178 -27 q 130 -5 143 -16 q 108 22 116 5 q 101 64 101 40 q 111 113 101 91 q 138 149 121 134 q 178 172 155 164 q 225 181 200 181 q 261 175 243 181 q 292 158 279 170 q 314 130 306 147 q 323 89 323 113 m 255 279 q 222 264 242 270 q 185 253 202 258 l 165 267 l 113 928 q 150 947 128 936 q 195 969 172 958 q 240 989 219 980 q 275 1004 261 999 l 309 982 l 255 279 "}," ":{"x_min":0,"x_max":0,"ha":346},"{":{"x_min":58.1875,"x_max":470.046875,"ha":487,"o":"m 470 1032 q 383 955 417 999 q 350 859 350 910 q 354 795 350 823 q 364 742 358 768 q 373 688 369 716 q 378 625 378 661 q 368 569 378 597 q 340 518 358 542 q 298 474 322 494 q 245 442 274 454 q 345 383 313 430 q 378 260 378 336 q 373 193 378 224 q 364 132 369 161 q 354 76 358 104 q 350 18 350 48 q 354 -31 350 -9 q 371 -74 358 -54 q 405 -113 383 -95 q 463 -152 427 -132 l 437 -214 q 326 -167 375 -190 q 243 -113 277 -143 q 193 -47 210 -84 q 176 38 176 -10 q 180 103 176 74 q 190 159 184 131 q 199 217 195 187 q 204 285 204 247 q 180 363 204 340 q 113 387 156 387 l 99 387 q 92 386 95 387 q 84 385 88 386 q 69 382 79 384 l 58 439 q 169 497 134 460 q 204 585 204 534 q 199 649 204 622 q 190 702 195 676 q 180 754 184 727 q 176 820 176 782 q 196 904 176 865 q 252 975 216 943 q 337 1035 288 1008 q 442 1085 385 1061 l 470 1032 "},"X":{"x_min":16.28125,"x_max":859.3125,"ha":875,"o":"m 497 0 l 497 50 q 545 57 526 52 q 571 67 563 61 q 578 83 579 74 q 568 106 577 93 l 408 339 l 254 106 q 241 82 244 92 q 246 65 239 72 q 271 55 253 59 q 321 50 290 52 l 321 0 l 16 0 l 16 50 q 90 66 60 53 q 139 106 121 79 l 349 426 l 128 748 q 109 772 118 762 q 87 788 99 781 q 60 797 75 794 q 23 805 45 801 l 23 855 l 389 855 l 389 805 q 314 788 332 799 q 317 748 297 777 l 457 542 l 587 748 q 598 773 596 763 q 592 789 600 783 q 567 799 585 796 q 518 805 549 802 l 518 855 l 826 855 l 826 805 q 782 798 801 802 q 748 787 763 794 q 721 771 733 781 q 701 748 710 762 l 516 458 l 756 106 q 776 82 767 92 q 798 66 786 73 q 824 56 809 60 q 859 50 839 52 l 859 0 l 497 0 "},"P":{"x_min":20.265625,"x_max":737,"ha":787,"o":"m 29 0 l 29 49 q 98 70 75 59 q 122 90 122 81 l 122 785 q 72 778 96 782 q 29 771 49 775 l 20 834 q 101 850 56 843 q 194 863 146 858 q 292 871 243 868 q 386 875 341 875 q 529 859 465 875 q 640 813 594 843 q 711 738 686 782 q 737 635 737 693 q 724 548 737 588 q 689 478 711 509 q 638 423 667 447 q 577 384 609 399 q 512 360 545 368 q 449 353 479 353 q 388 358 418 353 q 335 373 358 363 l 314 444 q 363 427 342 431 q 408 424 385 424 q 466 434 437 424 q 516 467 494 445 q 552 524 538 489 q 566 607 566 558 q 550 691 566 655 q 505 753 534 728 q 436 790 476 777 q 348 803 396 803 q 320 802 334 803 q 292 802 306 802 l 292 90 q 296 82 292 86 q 313 71 300 77 q 348 61 325 66 q 405 49 370 55 l 405 0 l 29 0 "},"%":{"x_min":37,"x_max":975,"ha":1011,"o":"m 836 196 q 812 343 836 295 q 752 390 788 390 q 699 352 718 390 q 681 226 681 314 q 702 77 681 125 q 764 30 723 30 q 817 68 799 30 q 836 196 836 107 m 975 210 q 958 120 975 162 q 912 47 941 78 q 842 -2 882 15 q 752 -21 801 -21 q 664 -2 703 -21 q 598 47 626 15 q 556 120 571 78 q 542 210 542 162 q 557 300 542 258 q 602 373 573 342 q 672 423 631 405 q 764 442 713 442 q 853 423 814 442 q 919 374 893 405 q 960 300 946 342 q 975 210 975 258 m 253 4 q 232 -3 246 0 q 204 -9 219 -6 q 175 -15 189 -12 q 152 -21 161 -18 l 136 0 l 755 813 q 775 820 762 816 q 803 827 788 824 q 832 833 818 830 q 853 838 845 836 l 871 817 l 253 4 m 331 595 q 324 681 331 644 q 306 741 318 717 q 280 777 295 765 q 247 789 265 789 q 194 751 213 789 q 176 624 176 713 q 196 476 176 523 q 258 428 217 428 q 312 467 293 428 q 331 595 331 506 m 470 608 q 453 519 470 561 q 407 446 436 477 q 337 396 377 414 q 247 378 296 378 q 159 396 198 378 q 93 446 121 414 q 51 519 66 477 q 37 608 37 561 q 52 698 37 656 q 96 771 68 740 q 166 821 125 803 q 258 840 207 840 q 348 821 308 840 q 414 772 387 803 q 455 698 441 740 q 470 608 470 656 "},"#":{"x_min":48.828125,"x_max":706.703125,"ha":703,"o":"m 585 662 l 689 662 l 706 645 q 701 626 705 637 q 692 602 697 614 q 682 580 687 591 q 675 564 678 569 l 557 564 l 513 410 l 617 410 l 632 391 q 627 373 631 385 q 619 350 623 362 q 610 328 614 339 q 603 312 606 318 l 485 312 l 429 115 q 412 106 423 110 q 390 98 402 102 q 367 92 379 95 q 346 86 355 88 l 328 99 l 389 312 l 271 312 l 215 115 q 198 106 208 110 q 177 98 188 102 l 153 92 q 133 86 142 88 l 115 99 l 176 312 l 63 312 l 48 328 q 53 346 50 335 q 62 369 57 357 q 71 392 67 380 q 79 410 75 403 l 204 410 l 248 564 l 137 564 l 120 580 q 126 598 122 587 q 135 621 130 609 q 144 644 140 633 q 151 662 149 655 l 276 662 l 329 848 q 347 857 337 853 q 369 864 358 861 q 391 869 381 867 q 409 876 402 872 l 429 861 l 371 662 l 489 662 l 542 848 q 560 857 550 853 q 582 864 571 861 q 604 869 594 867 q 623 876 615 872 l 642 861 l 585 662 m 299 410 l 417 410 l 461 564 l 343 564 l 299 410 "},"_":{"x_min":35.953125,"x_max":635.5,"ha":671,"o":"m 635 -109 q 629 -127 633 -117 q 620 -149 625 -138 q 611 -170 615 -161 q 604 -186 607 -180 l 57 -186 l 35 -164 q 41 -147 37 -157 q 50 -125 45 -136 q 59 -104 54 -115 q 67 -88 63 -94 l 613 -88 l 635 -109 "},"+":{"x_min":36.109375,"x_max":549.171875,"ha":585,"o":"m 343 152 q 326 145 336 149 q 305 137 316 140 q 284 130 295 133 q 266 126 274 127 l 245 146 l 245 333 l 57 333 l 36 354 q 41 371 38 361 q 50 392 45 381 q 59 413 55 403 q 67 430 63 423 l 245 430 l 245 611 l 261 617 q 282 624 271 620 q 303 631 292 628 q 321 637 313 634 l 343 615 l 343 430 l 526 430 l 549 408 q 543 391 547 401 q 534 369 539 380 q 525 348 529 358 q 517 333 520 338 l 343 333 l 343 152 "},")":{"x_min":18,"x_max":390,"ha":461,"o":"m 390 448 q 366 237 390 337 q 299 52 343 137 q 194 -100 256 -33 q 54 -214 131 -167 l 18 -163 q 94 -65 58 -122 q 156 65 129 -8 q 198 229 182 139 q 214 429 214 320 q 201 617 214 528 q 164 784 188 707 q 102 924 139 861 q 18 1033 66 987 l 54 1084 q 201 974 138 1039 q 306 829 264 910 q 369 652 348 748 q 390 448 390 556 "},"'":{"x_min":93.59375,"x_max":284.859375,"ha":378,"o":"m 235 565 q 219 559 229 562 q 195 555 208 557 q 170 552 182 553 q 149 551 158 551 l 93 946 q 110 954 98 949 q 139 965 123 959 q 172 978 154 972 q 205 989 189 984 q 233 998 221 995 q 250 1004 245 1002 l 284 984 l 235 565 "},"}":{"x_min":16.625,"x_max":428.828125,"ha":486,"o":"m 428 431 q 317 373 352 410 q 283 285 283 337 q 287 221 283 248 q 296 168 291 194 q 305 116 301 143 q 310 51 310 88 q 289 -33 310 4 q 233 -104 269 -71 q 149 -163 197 -136 q 44 -214 100 -190 l 16 -161 q 102 -83 69 -127 q 136 12 136 -39 q 131 75 136 47 q 122 128 127 102 q 113 182 117 154 q 109 245 109 209 q 118 301 109 274 q 146 352 128 328 q 188 396 164 376 q 241 427 212 415 q 140 487 172 440 q 109 610 109 534 q 113 677 109 646 q 122 737 117 709 q 131 793 127 766 q 136 851 136 821 q 131 902 136 879 q 114 945 127 925 q 80 984 102 965 q 23 1022 58 1002 l 49 1084 q 160 1037 111 1061 q 242 984 208 1013 q 292 918 275 955 q 310 832 310 881 q 305 767 310 796 q 296 710 301 739 q 287 652 291 682 q 283 585 283 623 q 306 507 283 530 q 373 484 330 484 l 386 484 q 394 484 391 484 q 402 485 398 484 q 417 488 407 486 l 428 431 "},"a":{"x_min":44,"x_max":688.765625,"ha":694,"o":"m 279 98 q 306 101 291 98 q 337 112 320 104 q 375 133 354 120 q 422 169 396 147 l 422 319 q 353 306 381 312 q 306 292 325 299 q 275 278 287 286 q 255 262 264 271 q 226 224 237 244 q 216 175 216 204 q 222 137 216 152 q 238 113 228 122 q 259 101 248 105 q 279 98 270 98 m 688 76 q 629 39 660 56 q 571 8 598 21 q 520 -12 543 -5 q 486 -20 498 -20 q 443 8 460 -20 q 423 87 426 37 q 361 36 392 57 q 301 3 330 15 q 246 -14 273 -9 q 198 -20 220 -20 q 142 -10 170 -20 q 93 18 115 0 q 57 67 71 38 q 44 136 44 97 q 60 214 44 182 q 102 272 77 247 q 139 303 118 288 q 196 333 161 318 q 286 360 232 347 q 422 386 340 373 l 422 466 q 417 505 422 487 q 403 535 413 523 q 376 555 393 548 q 333 563 359 563 q 301 556 317 563 q 272 539 285 550 q 253 512 260 528 q 248 476 246 496 q 237 466 249 472 q 208 453 226 459 q 169 440 190 447 q 128 429 148 434 q 93 422 108 425 q 72 421 77 420 l 57 458 q 109 534 74 499 q 190 595 143 569 q 292 636 237 621 q 404 651 348 651 q 485 638 451 651 q 541 604 519 626 q 574 552 563 582 q 585 488 585 522 l 585 161 q 592 121 585 133 q 612 109 599 109 q 621 109 616 109 q 634 112 627 110 q 650 118 641 114 q 673 127 660 121 l 688 76 "},"T":{"x_min":1.765625,"x_max":780.8125,"ha":806,"o":"m 203 0 l 203 49 q 254 62 234 55 q 287 75 275 69 q 304 87 299 82 q 309 98 309 93 l 309 774 l 136 774 q 117 766 126 774 q 98 742 108 759 q 77 698 89 725 q 51 631 66 670 l 1 649 q 6 697 3 669 q 13 754 9 724 q 21 810 17 783 q 28 855 25 837 l 755 855 l 780 833 q 777 791 780 815 q 771 739 775 766 q 763 685 767 712 q 755 638 759 659 l 704 638 q 692 694 697 669 q 683 737 688 720 q 669 764 677 754 q 646 774 660 774 l 479 774 l 479 98 q 483 88 479 94 q 500 76 488 82 q 533 62 512 69 q 585 49 554 55 l 585 0 l 203 0 "},"=":{"x_min":35.953125,"x_max":594.796875,"ha":631,"o":"m 594 306 q 588 288 592 298 q 579 266 584 277 q 570 245 575 255 q 564 230 566 236 l 57 230 l 35 251 q 41 269 37 259 q 50 290 45 279 q 59 311 54 301 q 67 328 63 321 l 573 328 l 594 306 m 594 510 q 588 492 592 502 q 579 470 584 481 q 570 449 575 459 q 564 434 566 439 l 57 434 l 35 455 q 41 473 37 462 q 50 494 45 483 q 59 515 54 505 q 67 532 63 525 l 573 532 l 594 510 "},"N":{"x_min":29.078125,"x_max":894.59375,"ha":922,"o":"m 29 0 l 29 49 q 100 68 78 55 q 122 90 122 81 l 122 755 q 29 805 77 797 l 29 855 l 219 855 q 235 853 229 855 q 248 846 242 851 q 263 830 255 840 q 284 802 271 819 l 699 226 l 699 763 q 694 773 699 767 q 679 784 690 779 q 651 795 669 790 q 606 805 633 801 l 606 855 l 894 855 l 894 805 q 823 785 845 798 q 801 763 801 772 l 801 -20 q 696 5 735 -14 q 638 50 657 25 l 224 624 l 224 90 q 228 81 224 86 q 244 69 233 75 q 273 58 255 63 q 317 49 291 52 l 317 0 l 29 0 "},"2":{"x_min":55.984375,"x_max":628,"ha":702,"o":"m 618 0 l 75 0 l 55 50 q 195 215 135 143 q 298 343 255 287 q 371 441 342 399 q 416 516 399 483 q 440 576 433 549 q 448 626 448 602 q 441 680 448 655 q 423 723 435 705 q 390 751 410 741 q 342 762 370 762 q 294 749 314 762 q 262 717 274 737 q 245 673 249 698 q 245 623 241 648 q 215 610 234 617 q 176 597 197 603 q 134 586 155 591 q 98 580 113 581 l 74 626 q 99 698 74 661 q 167 767 124 736 q 267 817 210 797 q 388 838 324 838 q 483 827 440 838 q 556 794 526 816 q 602 740 586 772 q 619 666 619 709 q 610 605 619 635 q 583 541 602 575 q 534 466 564 506 q 462 375 505 426 q 362 261 419 324 q 233 118 306 198 l 504 118 q 525 123 515 118 q 541 139 534 129 q 553 160 548 148 q 562 185 558 172 q 573 253 570 215 l 628 240 l 618 0 "},"j":{"x_min":-195.1875,"x_max":320,"ha":401,"o":"m 292 72 q 278 -59 292 -5 q 242 -150 264 -113 q 192 -213 220 -188 q 137 -260 165 -239 q 97 -288 119 -275 q 51 -311 74 -301 q 5 -327 27 -321 q -36 -334 -17 -334 q -91 -327 -62 -334 q -142 -310 -119 -320 q -180 -290 -165 -300 q -195 -271 -195 -279 q -180 -245 -195 -262 q -146 -211 -166 -228 q -108 -180 -127 -194 q -78 -161 -88 -166 q -52 -185 -67 -174 q -20 -202 -36 -195 q 12 -213 -3 -209 q 40 -217 27 -217 q 74 -207 58 -217 q 102 -170 90 -197 q 121 -95 114 -143 q 129 29 129 -47 l 129 439 q 128 495 129 474 q 119 527 127 516 q 93 545 111 539 q 39 554 74 550 l 39 602 q 102 612 75 606 q 152 622 129 617 q 197 635 175 628 q 246 651 219 642 l 292 651 l 292 72 m 320 855 q 311 813 320 832 q 287 780 303 794 q 251 759 272 766 q 206 752 231 752 q 170 756 187 752 q 140 770 153 760 q 120 793 127 779 q 113 827 113 807 q 121 869 113 850 q 146 901 130 888 q 182 922 161 915 q 227 930 203 930 q 262 925 245 930 q 291 912 279 921 q 312 888 304 902 q 320 855 320 874 "},"Z":{"x_min":35.265625,"x_max":708.0625,"ha":757,"o":"m 708 239 q 705 184 706 217 q 703 117 704 151 q 701 51 702 83 q 699 0 700 19 l 59 0 l 35 35 l 491 767 l 226 767 q 202 755 215 767 q 175 722 188 743 q 150 672 162 701 q 130 608 138 643 l 71 621 l 96 865 q 130 859 115 861 q 160 855 145 856 q 190 855 174 855 l 678 855 l 701 821 l 248 88 l 557 88 q 583 98 571 88 q 605 129 594 108 q 626 181 615 150 q 650 254 637 212 l 708 239 "},"u":{"x_min":22.9375,"x_max":775.453125,"ha":782,"o":"m 775 76 q 720 43 750 59 q 661 11 690 26 q 611 -11 633 -2 q 581 -20 589 -20 q 557 -15 569 -20 q 536 1 546 -11 q 519 35 527 13 q 508 92 512 57 q 432 33 466 55 q 371 0 399 11 q 321 -16 344 -12 q 277 -20 298 -20 q 214 -11 245 -20 q 159 21 183 -2 q 119 85 134 44 q 105 189 105 125 l 105 467 q 103 517 105 499 q 95 544 102 535 q 70 557 87 554 q 22 564 54 560 l 22 611 q 85 617 56 614 q 138 625 113 621 q 190 636 164 629 q 244 651 215 642 l 268 619 l 268 231 q 273 163 268 189 q 288 122 278 137 q 312 102 298 107 q 346 97 327 97 q 377 100 360 97 q 413 112 393 103 q 456 137 433 122 q 508 177 480 153 l 508 467 q 505 516 508 497 q 494 544 503 534 q 467 558 485 554 q 418 564 449 562 l 418 611 q 541 628 486 617 q 645 651 596 638 l 671 619 l 671 192 q 671 157 671 171 q 674 134 672 144 q 678 120 675 125 q 686 111 681 114 q 709 109 694 106 q 758 127 723 112 l 775 76 "},"1":{"x_min":83.84375,"x_max":620.5625,"ha":703,"o":"m 104 0 l 104 56 q 193 70 157 62 q 249 86 228 77 q 279 102 270 94 q 288 117 288 109 l 288 616 q 285 658 288 644 q 275 683 283 673 q 261 690 271 687 q 230 692 250 692 q 179 687 210 691 q 103 673 148 683 l 83 728 q 130 740 102 732 q 191 759 159 749 q 256 781 222 769 q 321 804 290 793 q 378 826 352 816 q 421 844 404 836 l 451 815 l 451 117 q 458 102 451 110 q 484 86 465 94 q 536 70 503 78 q 620 56 569 62 l 620 0 l 104 0 "},"k":{"x_min":33,"x_max":771.28125,"ha":766,"o":"m 33 0 l 33 49 q 99 69 77 61 q 122 90 122 78 l 122 858 q 118 906 122 889 q 106 932 115 923 q 79 943 97 940 q 33 949 62 945 l 33 996 q 153 1018 98 1006 q 255 1051 209 1030 l 285 1023 l 285 361 l 463 521 q 492 553 485 541 q 493 571 498 565 q 475 579 489 578 q 444 581 462 581 l 444 631 l 747 631 l 747 581 q 687 567 717 578 q 628 534 658 556 l 422 378 l 667 100 q 686 83 677 90 q 706 74 695 77 q 732 70 718 71 q 767 71 747 70 l 771 22 q 726 12 751 17 q 678 2 701 7 q 635 -4 654 -1 q 610 -7 617 -7 q 562 1 582 -7 q 527 28 542 9 l 285 350 l 285 90 q 287 81 285 85 q 297 72 289 77 q 319 63 304 68 q 359 49 334 57 l 359 0 l 33 0 "},"€":{"x_min":11.53125,"x_max":672.03125,"ha":703,"o":"m 464 297 l 260 297 q 289 191 269 233 q 333 124 308 149 q 386 87 358 98 q 442 77 415 77 q 480 80 461 77 q 521 94 499 83 q 571 123 543 104 q 632 173 598 142 q 651 151 642 164 q 668 128 660 139 q 591 53 627 82 q 521 7 555 24 q 456 -14 488 -8 q 394 -20 425 -20 q 290 0 340 -20 q 199 59 240 20 q 129 158 158 99 q 88 297 100 218 l 31 297 l 11 319 q 15 332 12 324 q 21 348 18 340 q 26 364 23 357 q 31 378 29 372 l 81 378 l 81 396 q 83 456 81 426 l 51 456 l 31 478 q 35 491 33 483 q 41 507 38 499 q 46 523 44 516 q 51 537 49 531 l 93 537 q 140 669 108 613 q 218 763 171 726 q 324 819 264 801 q 455 838 383 838 q 520 832 489 838 q 579 817 551 827 q 630 796 607 808 q 670 769 653 784 q 670 758 673 767 q 661 736 667 749 q 646 707 655 722 q 629 677 638 691 q 612 652 620 663 q 599 635 604 640 l 555 644 q 489 721 524 695 q 402 748 453 748 q 360 739 382 748 q 318 708 338 731 q 283 644 299 686 q 259 537 267 603 l 505 537 l 527 516 l 505 456 l 253 456 q 252 431 252 443 l 252 378 l 464 378 l 486 357 l 464 297 "},"<":{"x_min":35.953125,"x_max":594.796875,"ha":631,"o":"m 594 225 q 561 193 579 211 q 522 163 543 175 l 57 330 l 35 356 l 37 364 l 41 376 l 48 399 q 51 410 49 405 q 54 421 53 416 q 55 425 55 423 q 57 429 56 427 l 61 439 l 573 624 l 594 602 q 589 582 592 594 q 582 557 586 571 q 575 532 579 544 q 570 514 572 520 l 211 385 l 578 254 l 594 225 "},"t":{"x_min":3.265625,"x_max":499.28125,"ha":514,"o":"m 499 105 q 346 10 409 40 q 248 -20 284 -20 q 192 -8 219 -20 q 147 25 166 2 q 116 83 128 48 q 105 165 105 118 l 105 546 l 22 546 l 3 570 l 56 631 l 105 631 l 105 772 l 242 874 l 268 851 l 268 631 l 474 631 l 499 606 q 484 582 493 594 q 465 557 474 569 q 446 536 455 546 q 430 522 437 527 q 410 530 422 526 q 381 538 397 534 q 349 543 366 541 q 313 546 331 546 l 268 546 l 268 228 q 272 170 268 194 q 283 131 276 146 q 302 110 291 116 q 325 104 312 104 q 351 106 337 104 q 381 114 364 108 q 419 129 398 119 q 469 154 440 139 l 499 105 "},"W":{"x_min":13.5625,"x_max":1174.6875,"ha":1181,"o":"m 1174 805 q 1125 793 1144 799 q 1093 783 1105 788 q 1077 773 1082 778 q 1071 763 1072 768 l 916 40 q 901 15 912 26 q 873 -2 889 5 q 843 -13 858 -9 q 817 -20 827 -17 l 585 595 l 391 40 q 374 15 386 26 q 346 -1 362 5 q 314 -12 330 -8 q 283 -20 297 -17 l 107 758 q 82 785 103 774 q 13 805 61 796 l 13 855 l 345 855 l 345 805 q 293 797 311 802 q 267 785 275 791 q 258 772 259 779 q 258 758 257 765 l 374 261 l 572 855 l 640 855 l 867 261 l 976 763 q 970 777 978 771 q 948 788 963 783 q 914 797 934 793 q 872 805 895 801 l 872 855 l 1174 855 l 1174 805 "},"v":{"x_min":8.8125,"x_max":696.53125,"ha":705,"o":"m 696 581 q 664 572 676 576 q 645 563 652 568 q 634 551 638 558 q 626 535 630 544 l 434 55 q 416 28 428 41 q 387 6 403 16 q 352 -9 370 -3 q 318 -20 334 -15 l 78 535 q 56 563 71 553 q 8 581 42 574 l 8 631 l 316 631 l 316 581 q 274 574 289 578 q 251 565 259 570 q 244 553 244 560 q 249 535 244 546 l 395 194 l 532 535 q 536 552 536 545 q 531 564 537 559 q 513 573 526 569 q 477 581 500 577 l 477 631 l 696 631 l 696 581 "},">":{"x_min":35.953125,"x_max":594.796875,"ha":631,"o":"m 594 430 q 589 410 592 421 q 582 388 586 399 q 575 366 579 377 q 569 347 571 355 l 57 163 l 35 185 q 41 204 37 192 q 47 229 44 216 q 55 254 51 242 q 61 272 59 266 l 417 401 l 52 532 l 35 562 q 70 593 50 575 q 107 624 89 611 l 573 457 l 594 430 "},"s":{"x_min":52.03125,"x_max":530,"ha":582,"o":"m 530 192 q 515 109 530 144 q 477 51 500 75 q 424 13 454 28 q 365 -7 395 0 q 308 -17 335 -15 q 260 -20 280 -20 q 213 -16 239 -20 q 161 -7 188 -13 q 109 7 135 -1 q 61 29 83 17 q 53 53 56 31 q 52 105 51 75 q 55 169 52 136 q 66 227 58 202 l 120 220 q 143 155 127 184 q 180 105 158 126 q 228 74 202 85 q 284 63 255 63 q 357 80 333 63 q 381 138 381 98 q 367 187 381 166 q 330 227 353 209 q 278 262 307 246 q 218 294 249 277 q 161 325 189 308 q 110 364 133 343 q 74 411 88 385 q 60 469 60 437 q 80 545 60 511 q 135 602 101 579 q 212 638 169 625 q 301 651 255 651 q 360 647 331 651 q 417 636 390 643 q 467 620 444 630 q 506 598 490 611 q 507 576 510 595 q 498 532 505 556 q 483 485 492 508 q 466 451 474 462 l 419 457 q 371 548 402 516 q 294 580 339 580 q 231 561 253 580 q 209 514 209 542 q 219 475 209 492 q 250 443 230 458 q 299 413 270 428 q 364 379 328 398 q 423 347 393 364 q 476 308 452 330 q 515 258 500 286 q 530 192 530 230 "},"B":{"x_min":20.265625,"x_max":766,"ha":835,"o":"m 766 241 q 741 136 766 183 q 672 57 717 90 q 562 7 626 25 q 415 -10 497 -10 q 378 -9 400 -10 q 330 -8 356 -9 q 275 -7 303 -7 q 219 -5 246 -6 q 83 0 155 -2 l 29 0 l 29 49 q 98 70 75 59 q 122 90 122 81 l 122 790 q 72 784 96 787 q 29 777 48 780 l 20 834 q 92 848 50 841 q 179 861 133 856 q 271 871 225 867 q 358 875 318 875 q 498 862 437 875 q 602 826 559 849 q 668 768 645 802 q 691 691 691 734 q 651 566 691 618 q 536 490 612 514 q 629 459 586 482 q 701 404 671 437 q 749 329 732 371 q 766 241 766 288 m 383 433 q 331 430 352 433 q 292 424 311 427 l 292 86 q 295 77 292 81 q 339 66 315 69 q 390 63 363 63 q 538 107 488 63 q 588 228 588 151 q 578 302 588 265 q 544 367 568 338 q 481 415 520 397 q 383 433 442 433 m 316 803 l 304 803 q 292 802 298 803 l 292 502 l 304 502 q 414 515 372 502 q 479 551 455 529 q 510 601 502 573 q 519 658 519 629 q 509 719 519 692 q 475 764 499 746 q 412 793 451 783 q 316 803 373 803 "},"?":{"x_min":44,"x_max":587,"ha":632,"o":"m 587 790 q 569 697 587 739 q 526 619 552 656 q 469 550 500 583 q 411 485 438 518 q 365 419 384 453 q 344 344 346 384 l 339 279 q 309 263 327 270 q 273 251 291 257 l 251 270 l 246 344 q 255 420 243 383 q 285 493 266 458 q 324 562 303 528 q 365 629 346 596 q 397 695 384 662 q 410 759 410 727 q 382 883 410 843 q 307 924 355 924 q 275 915 290 924 q 248 890 259 906 q 229 853 236 875 q 222 804 222 831 q 224 782 222 795 q 230 760 226 770 q 198 748 219 755 q 153 735 177 741 q 107 725 130 730 q 69 719 84 720 l 45 744 q 44 761 44 750 l 44 777 q 69 866 44 824 q 137 938 94 907 q 237 986 180 968 q 355 1004 293 1004 q 454 988 411 1004 q 527 944 498 972 q 571 877 556 916 q 587 790 587 837 m 412 89 q 402 40 412 62 q 375 3 392 18 q 336 -19 359 -11 q 288 -27 313 -27 q 250 -21 268 -27 q 219 -5 232 -16 q 197 22 205 5 q 190 64 190 40 q 200 113 190 91 q 227 149 210 134 q 267 172 244 164 q 314 181 290 181 q 351 175 333 181 q 382 158 368 170 q 403 130 395 147 q 412 89 412 113 "},"H":{"x_min":29.078125,"x_max":907.59375,"ha":949,"o":"m 29 0 l 29 49 q 98 70 75 59 q 122 90 122 81 l 122 763 q 99 783 122 771 q 29 805 77 795 l 29 855 l 385 855 l 385 805 q 315 784 339 795 q 292 763 292 772 l 292 488 l 644 488 l 644 763 q 621 783 644 771 q 551 805 599 795 l 551 855 l 907 855 l 907 805 q 837 784 861 795 q 814 763 814 772 l 814 90 q 836 70 814 82 q 907 49 858 59 l 907 0 l 551 0 l 551 49 q 620 70 597 59 q 644 90 644 81 l 644 407 l 292 407 l 292 90 q 314 70 292 82 q 385 49 336 59 l 385 0 l 29 0 "},"c":{"x_min":44,"x_max":605.796875,"ha":633,"o":"m 605 129 q 524 49 561 79 q 453 4 487 20 q 388 -15 419 -11 q 325 -20 357 -20 q 219 2 270 -20 q 129 65 168 24 q 67 166 90 106 q 44 301 44 226 q 71 438 44 374 q 146 548 98 501 q 262 623 195 596 q 410 651 329 651 q 460 647 432 651 q 516 636 489 643 q 566 619 543 629 q 600 597 588 609 q 598 578 601 591 q 591 547 596 564 q 581 509 587 529 q 569 472 575 490 q 556 440 563 454 q 546 420 550 426 l 501 426 q 446 529 478 493 q 359 566 413 566 q 302 552 329 566 q 253 509 274 538 q 219 433 232 480 q 207 322 207 387 q 220 225 207 268 q 258 154 234 183 q 315 109 282 125 q 384 94 348 94 q 421 96 403 94 q 459 106 438 98 q 507 130 481 115 q 569 172 533 146 l 605 129 "},"&":{"x_min":44,"x_max":959.375,"ha":963,"o":"m 337 766 q 346 693 337 731 q 373 615 355 655 q 426 657 405 634 q 460 702 448 679 q 478 749 473 725 q 484 794 484 772 q 461 868 484 841 q 408 896 439 896 q 376 885 390 896 q 354 858 363 875 q 341 816 345 840 q 337 766 337 792 m 388 78 q 462 89 427 78 q 530 120 498 101 q 465 186 498 151 q 400 261 432 222 q 338 343 368 301 q 283 428 309 385 q 233 342 247 385 q 220 253 220 300 q 234 172 220 206 q 273 118 249 139 q 328 87 298 97 q 388 78 358 78 m 959 507 q 941 484 951 496 q 920 459 930 471 q 900 437 910 447 q 882 421 890 427 q 827 442 856 432 q 775 454 798 452 q 793 414 789 434 q 798 368 798 393 q 777 272 798 323 q 719 172 756 221 q 747 148 733 160 q 773 126 760 137 q 845 89 808 97 q 918 90 883 82 l 928 40 q 867 16 899 28 q 806 -2 835 5 q 757 -15 778 -10 q 728 -20 736 -20 q 677 1 711 -20 q 597 59 642 22 q 481 1 544 22 q 348 -20 417 -20 q 220 -3 276 -20 q 124 45 164 13 q 64 126 85 78 q 44 238 44 175 q 89 382 44 310 q 232 526 134 454 q 196 628 209 577 q 184 727 184 678 q 205 829 184 782 q 262 910 226 875 q 347 963 298 944 q 450 983 395 983 q 538 969 501 983 q 598 932 575 955 q 633 878 622 909 q 645 816 645 848 q 627 744 645 780 q 579 673 609 707 q 512 607 550 638 q 434 550 474 575 l 413 536 q 464 459 436 498 q 521 382 491 420 q 583 310 552 345 q 647 242 615 274 q 667 291 660 267 q 675 340 675 316 q 666 391 675 368 q 642 430 657 414 q 609 454 628 446 q 571 463 590 463 l 551 486 q 562 498 554 490 q 578 513 569 505 q 595 527 586 521 q 611 537 605 534 l 938 537 l 959 507 "},"I":{"x_min":42.09375,"x_max":398.59375,"ha":454,"o":"m 42 0 l 42 49 q 111 70 88 59 q 135 90 135 81 l 135 763 q 112 783 135 771 q 42 805 90 795 l 42 855 l 398 855 l 398 805 q 328 784 352 795 q 305 763 305 772 l 305 90 q 327 70 305 82 q 398 49 349 59 l 398 0 l 42 0 "},"G":{"x_min":37,"x_max":807.78125,"ha":836,"o":"m 743 805 q 743 793 746 802 q 734 769 740 783 q 718 739 728 756 q 700 708 709 723 q 682 682 691 693 q 667 665 673 670 l 624 674 q 579 729 602 707 q 532 765 557 752 q 481 784 508 778 q 426 790 455 790 q 386 783 409 790 q 339 760 363 776 q 292 716 315 743 q 250 650 268 689 q 220 556 232 610 q 209 432 209 502 q 230 276 209 341 q 286 169 251 211 q 365 107 321 127 q 458 87 410 87 q 525 93 496 87 q 579 112 555 100 l 579 318 q 576 333 579 326 q 562 347 573 340 q 529 361 551 354 q 469 374 507 367 l 469 424 l 807 424 l 807 374 q 755 349 769 365 q 742 318 742 334 l 742 114 q 647 47 691 73 q 566 6 604 21 q 494 -14 528 -8 q 429 -20 460 -20 q 331 -8 379 -20 q 240 25 283 2 q 159 82 196 47 q 94 163 121 116 q 52 267 67 209 q 37 394 37 325 q 72 596 37 507 q 172 747 108 685 q 322 842 236 809 q 510 875 409 875 q 563 870 532 875 q 626 856 594 865 q 690 834 659 847 q 743 805 721 821 "},"(":{"x_min":72,"x_max":444,"ha":461,"o":"m 407 -214 q 259 -104 322 -169 q 155 41 197 -40 q 92 218 113 122 q 72 422 72 314 q 95 633 72 533 q 162 819 118 734 q 267 971 205 903 q 407 1085 330 1038 l 444 1034 q 367 936 403 993 q 305 805 332 879 q 263 641 279 732 q 248 441 248 549 q 260 253 248 342 q 297 86 273 163 q 359 -53 322 9 q 444 -163 395 -116 l 407 -214 "},"`":{"x_min":-11.53125,"x_max":306.5625,"ha":443,"o":"m 306 736 q 295 727 302 732 q 279 718 287 723 q 262 710 270 713 q 248 705 254 707 l -11 960 l 8 998 q 36 1003 15 999 q 82 1012 57 1008 q 128 1020 106 1016 q 158 1025 150 1024 l 306 736 "},"U":{"x_min":29.078125,"x_max":889.59375,"ha":928,"o":"m 889 805 q 819 784 843 795 q 796 763 796 772 l 796 355 q 771 197 796 266 q 701 79 746 127 q 595 5 657 30 q 461 -20 534 -20 q 329 0 391 -20 q 221 58 268 18 q 148 158 175 98 q 122 301 122 218 l 122 763 q 99 783 122 771 q 29 805 77 795 l 29 855 l 385 855 l 385 805 q 315 784 339 795 q 292 763 292 772 l 292 345 q 303 230 292 280 q 339 146 314 180 q 405 95 364 112 q 503 78 445 78 q 584 99 551 78 q 638 157 617 121 q 667 240 658 193 q 677 337 677 287 l 677 763 q 654 783 677 771 q 584 805 632 795 l 584 855 l 889 855 l 889 805 "},"F":{"x_min":29.15625,"x_max":659.234375,"ha":705,"o":"m 29 0 l 29 49 q 98 70 75 59 q 122 90 122 81 l 122 763 q 100 783 122 771 q 29 805 78 795 l 29 855 l 633 855 l 659 833 q 655 788 658 815 q 649 734 653 762 q 641 681 645 706 q 632 644 636 656 l 580 644 q 564 740 578 707 q 524 774 550 774 l 291 774 l 291 499 l 540 499 l 564 475 q 550 450 558 463 q 533 426 542 437 q 516 404 524 414 q 501 389 507 395 q 479 406 491 399 q 452 418 467 413 q 416 424 437 422 q 367 427 396 427 l 291 427 l 291 90 q 297 82 291 86 q 315 72 302 77 q 350 61 328 67 q 405 49 372 55 l 405 0 l 29 0 "},"r":{"x_min":32.5625,"x_max":597.515625,"ha":617,"o":"m 593 621 q 597 604 597 618 q 594 568 597 589 q 585 521 591 547 q 574 471 580 496 q 561 426 568 447 q 549 393 554 405 l 499 393 q 491 444 497 420 q 476 487 485 469 q 454 515 467 504 q 424 526 440 526 q 395 520 411 526 q 361 501 379 515 q 324 459 343 486 q 284 387 305 432 l 284 90 q 313 69 284 80 q 404 49 341 59 l 404 0 l 32 0 l 32 49 q 122 90 122 69 l 122 450 q 120 487 122 472 q 117 512 119 503 q 112 527 115 522 q 106 536 109 533 q 96 544 101 541 q 83 549 91 547 q 63 552 75 551 q 32 554 51 553 l 32 602 q 97 612 69 607 q 148 622 124 617 q 194 634 172 627 q 246 651 217 641 l 274 622 l 283 524 q 324 573 301 550 q 374 614 347 596 q 428 641 400 631 q 486 651 457 651 q 540 643 512 651 q 593 621 568 635 "},":":{"x_min":89,"x_max":311,"ha":374,"o":"m 311 559 q 301 510 311 532 q 274 473 291 488 q 235 450 258 458 q 187 443 212 443 q 149 448 167 443 q 118 464 131 453 q 96 492 104 475 q 89 534 89 510 q 99 583 89 561 q 126 619 109 604 q 166 642 143 634 q 213 651 189 651 q 250 645 232 651 q 281 628 267 640 q 302 600 294 617 q 311 559 311 583 m 311 89 q 301 40 311 62 q 274 3 291 18 q 235 -19 258 -11 q 187 -27 212 -27 q 149 -21 167 -27 q 118 -5 131 -16 q 96 22 104 5 q 89 64 89 40 q 99 113 89 91 q 126 149 109 134 q 166 172 143 164 q 213 181 189 181 q 250 175 232 181 q 281 158 267 170 q 302 130 294 147 q 311 89 311 113 "},"x":{"x_min":8.8125,"x_max":714.84375,"ha":724,"o":"m 381 0 l 381 50 q 412 53 398 51 q 433 61 425 56 q 439 78 440 67 q 425 106 438 88 l 326 244 l 219 106 q 206 78 206 89 q 215 62 206 68 q 239 54 224 56 q 270 50 254 51 l 270 0 l 8 0 l 8 49 q 51 59 33 53 q 82 73 69 65 q 103 91 94 82 q 120 110 112 100 l 277 312 l 126 522 q 108 544 117 534 q 87 562 99 554 q 58 574 75 569 q 16 581 41 578 l 16 631 l 352 631 l 352 581 q 318 575 330 578 q 300 566 305 572 q 299 550 295 560 q 314 524 302 540 l 389 417 l 472 524 q 488 550 484 540 q 487 566 492 560 q 470 575 482 572 q 436 581 457 578 l 436 631 l 695 631 l 695 581 q 648 574 667 578 q 615 562 629 569 q 592 544 602 554 q 572 522 581 534 l 438 350 l 611 110 q 627 91 618 100 q 648 73 636 81 q 676 59 659 65 q 714 50 692 52 l 714 0 l 381 0 "},"*":{"x_min":37.984375,"x_max":577.84375,"ha":615,"o":"m 339 827 l 486 952 q 506 938 493 947 q 534 917 520 928 q 560 896 548 906 q 577 880 572 885 l 571 842 l 374 770 l 556 705 q 553 680 555 697 q 549 647 551 664 q 543 613 546 629 q 538 590 540 598 l 502 577 l 342 710 l 376 522 q 354 511 368 518 q 322 498 339 505 q 290 486 305 492 q 268 480 276 481 l 238 503 l 274 710 l 128 585 q 108 600 121 590 q 81 621 94 610 q 54 642 67 632 q 37 657 42 652 l 43 695 l 241 767 l 59 832 q 61 857 59 841 q 66 891 63 873 q 71 924 68 908 q 76 947 74 940 l 111 961 l 272 826 l 238 1016 q 261 1026 246 1020 q 292 1039 276 1033 q 324 1051 309 1046 q 346 1059 339 1056 l 376 1034 l 339 827 "},"V":{"x_min":8.8125,"x_max":900.6875,"ha":923,"o":"m 900 805 q 828 788 854 796 q 795 760 802 779 l 540 55 q 519 28 535 41 q 485 6 504 16 q 445 -9 465 -3 q 408 -20 424 -15 l 99 760 q 71 789 92 778 q 8 805 51 800 l 8 855 l 354 855 l 354 805 q 282 791 300 801 q 272 762 265 781 l 493 194 l 694 760 q 695 777 697 770 q 682 789 693 784 q 654 798 672 794 q 608 805 636 802 l 608 855 l 900 855 l 900 805 "},"h":{"x_min":33,"x_max":792.21875,"ha":807,"o":"m 449 0 l 449 49 q 518 71 498 62 q 539 90 539 81 l 539 388 q 534 457 539 430 q 521 499 530 483 q 497 521 511 515 q 462 528 482 528 q 381 503 423 528 q 285 433 339 479 l 285 90 q 308 69 285 80 q 375 49 331 59 l 375 0 l 33 0 l 33 49 q 99 70 77 61 q 122 90 122 79 l 122 859 q 120 904 122 888 q 110 928 118 920 q 83 941 101 937 q 33 949 65 945 l 33 996 q 101 1007 70 1002 q 156 1019 131 1013 q 206 1033 182 1025 q 255 1051 230 1040 l 285 1023 l 285 530 q 431 622 363 594 q 552 651 499 651 q 608 641 581 651 q 656 612 635 632 q 689 558 676 591 q 702 477 702 524 l 702 90 q 706 81 702 86 q 720 72 710 77 q 748 62 730 67 q 792 49 765 56 l 792 0 l 449 0 "},"0":{"x_min":41,"x_max":662,"ha":703,"o":"m 485 383 q 474 545 485 476 q 444 659 463 614 q 399 727 425 705 q 343 750 374 750 q 289 733 312 750 q 250 678 265 716 q 226 582 234 641 q 219 437 219 522 q 255 159 219 251 q 359 68 291 68 q 414 84 391 68 q 454 139 438 101 q 477 237 469 177 q 485 383 485 297 m 662 408 q 638 243 662 321 q 573 106 615 165 q 472 14 530 48 q 343 -20 414 -20 q 216 14 272 -20 q 121 106 161 48 q 61 243 82 165 q 41 408 41 321 q 63 574 41 496 q 126 710 85 652 q 227 803 168 769 q 359 838 286 838 q 488 804 431 838 q 583 711 544 770 q 641 575 621 653 q 662 408 662 496 "},".":{"x_min":89,"x_max":311,"ha":374,"o":"m 311 89 q 301 40 311 62 q 274 3 291 18 q 235 -19 258 -11 q 187 -27 212 -27 q 149 -21 167 -27 q 118 -5 131 -16 q 96 22 104 5 q 89 64 89 40 q 99 113 89 91 q 126 149 109 134 q 166 172 143 164 q 213 181 189 181 q 250 175 232 181 q 281 158 267 170 q 302 130 294 147 q 311 89 311 113 "},"@":{"x_min":57,"x_max":1160,"ha":1218,"o":"m 708 495 q 674 543 693 525 q 622 561 655 561 q 532 502 563 561 q 501 317 501 443 q 510 219 501 259 q 535 155 519 180 q 568 119 550 130 q 605 109 587 109 q 629 112 618 109 q 652 124 641 115 q 676 149 663 134 q 708 190 689 165 l 708 495 m 1160 388 q 1146 278 1160 330 q 1109 180 1132 225 q 1053 97 1085 134 q 983 34 1021 60 q 906 -5 946 8 q 825 -20 865 -20 q 787 -14 804 -20 q 755 3 769 -9 q 729 37 740 15 q 712 89 718 58 q 663 36 684 57 q 623 2 642 14 q 584 -15 604 -10 q 537 -20 564 -20 q 467 -1 502 -20 q 403 56 431 17 q 356 155 374 95 q 338 296 338 215 q 346 381 338 339 q 372 464 355 424 q 415 537 390 503 q 473 597 441 571 q 546 636 506 622 q 633 651 586 651 q 662 648 649 651 q 689 639 676 646 q 717 621 703 633 q 748 589 731 608 q 813 616 785 602 q 870 651 840 629 l 891 630 q 881 581 885 606 q 874 531 877 559 q 871 475 871 503 l 871 193 q 880 131 871 152 q 919 110 889 110 q 955 125 935 110 q 990 171 974 141 q 1017 246 1007 201 q 1028 347 1028 290 q 999 550 1028 463 q 919 693 971 636 q 795 779 867 751 q 635 808 723 808 q 452 771 532 808 q 318 673 372 735 q 237 529 264 611 q 210 355 210 447 q 245 130 210 227 q 342 -32 281 33 q 486 -130 403 -97 q 663 -163 569 -163 q 785 -151 728 -163 q 888 -121 842 -139 q 970 -83 935 -103 q 1025 -45 1005 -63 l 1057 -104 q 994 -163 1033 -132 q 902 -219 955 -194 q 780 -262 848 -245 q 629 -280 712 -280 q 398 -239 503 -280 q 217 -121 293 -198 q 99 65 141 -45 q 57 315 57 175 q 78 474 57 397 q 138 619 99 551 q 232 743 177 686 q 354 839 287 799 q 499 902 421 880 q 662 925 577 925 q 864 892 772 925 q 1021 792 955 859 q 1123 624 1087 725 q 1160 388 1160 524 "},"f":{"x_min":25.296875,"x_max":604.046875,"ha":472,"o":"m 604 985 q 597 968 604 978 q 580 945 591 957 q 557 921 570 933 q 532 899 545 909 q 509 881 520 889 q 492 870 498 873 q 429 928 459 910 q 376 946 398 946 q 343 935 359 946 q 315 895 327 924 q 295 817 302 867 q 288 689 288 767 l 288 631 l 456 631 l 481 606 q 466 582 475 594 q 448 557 457 569 q 430 536 439 546 q 415 522 421 527 q 371 538 399 530 q 288 546 342 546 l 288 89 q 294 81 288 85 q 316 72 300 77 q 358 62 332 68 q 425 49 384 56 l 425 0 l 35 0 l 35 49 q 103 69 82 57 q 125 89 125 81 l 125 546 l 44 546 l 25 570 l 78 631 l 125 631 l 125 652 q 132 752 125 707 q 155 835 140 798 q 191 902 169 872 q 239 958 212 932 q 291 999 264 982 q 344 1028 318 1017 q 395 1045 370 1040 q 440 1051 420 1051 q 500 1042 471 1051 q 552 1024 530 1034 q 589 1002 575 1013 q 604 985 604 992 "},";":{"x_min":59.234375,"x_max":325,"ha":374,"o":"m 325 47 q 309 -31 325 10 q 267 -115 293 -73 q 204 -194 240 -156 q 127 -258 168 -231 l 81 -224 q 141 -132 119 -179 q 163 -25 163 -84 q 156 4 163 -10 q 138 30 150 19 q 109 47 126 41 q 70 52 91 53 l 59 104 q 76 117 63 110 q 107 132 89 125 q 148 148 126 140 q 190 162 169 156 q 230 172 211 169 q 259 176 248 176 q 308 130 292 160 q 325 47 325 101 m 311 559 q 301 510 311 532 q 274 474 291 489 q 235 451 258 459 q 187 443 212 443 q 149 448 167 443 q 118 465 131 453 q 96 493 104 476 q 89 535 89 510 q 99 583 89 561 q 126 620 109 605 q 166 643 143 635 q 213 651 189 651 q 250 646 232 651 q 281 629 267 640 q 302 601 294 618 q 311 559 311 583 "},"i":{"x_min":43,"x_max":385.203125,"ha":417,"o":"m 43 0 l 43 49 q 110 70 88 59 q 132 90 132 81 l 132 439 q 131 495 132 474 q 122 528 130 516 q 96 545 115 540 q 43 554 78 551 l 43 602 q 153 622 101 610 q 251 651 205 634 l 295 651 l 295 90 q 315 70 295 82 q 385 49 335 59 l 385 0 l 43 0 m 321 855 q 312 813 321 832 q 288 780 303 794 q 252 759 272 766 q 206 752 231 752 q 171 756 187 752 q 141 770 154 760 q 121 793 128 779 q 114 827 114 807 q 122 869 114 850 q 146 901 131 888 q 182 922 162 915 q 227 930 203 930 q 262 925 245 930 q 292 912 279 921 q 313 888 305 902 q 321 855 321 874 "},"6":{"x_min":64,"x_max":659,"ha":703,"o":"m 369 437 q 305 417 340 437 q 239 363 271 398 q 250 226 239 283 q 282 134 262 170 q 330 83 302 99 q 389 67 357 67 q 438 81 419 67 q 469 120 458 96 q 486 174 481 144 q 491 236 491 204 q 480 338 491 299 q 451 399 469 378 q 412 429 434 421 q 369 437 391 437 m 659 279 q 650 212 659 247 q 626 145 642 178 q 587 82 610 112 q 531 29 563 52 q 459 -6 499 7 q 373 -20 420 -20 q 252 4 309 -20 q 154 74 196 29 q 88 181 112 118 q 64 320 64 244 q 96 504 64 416 q 193 662 129 592 q 353 780 257 732 q 574 847 448 829 l 593 786 q 451 736 511 768 q 349 661 391 704 q 282 568 307 618 q 248 461 258 517 q 334 514 290 496 q 413 532 377 532 q 516 513 470 532 q 594 461 562 494 q 642 381 625 427 q 659 279 659 334 "},"A":{"x_min":0,"x_max":858.625,"ha":873,"o":"m 506 373 l 394 688 l 293 373 l 506 373 m 265 292 l 200 95 q 217 65 193 74 q 296 49 240 55 l 296 0 l 0 0 l 0 49 q 70 66 46 57 q 102 95 95 75 l 339 818 q 374 843 355 831 q 412 864 392 855 q 452 880 432 873 q 489 893 472 887 l 774 95 q 783 78 777 86 q 798 65 788 71 q 822 56 807 60 q 858 49 836 52 l 858 0 l 521 0 l 521 49 q 593 63 574 52 q 604 95 611 73 l 535 292 l 265 292 "},"n":{"x_min":33,"x_max":792.21875,"ha":807,"o":"m 449 0 l 449 49 q 518 71 498 62 q 539 90 539 81 l 539 399 q 535 461 539 436 q 523 500 531 485 q 501 521 515 515 q 467 528 488 528 q 433 523 451 528 q 393 508 415 519 q 344 479 371 498 q 285 433 317 461 l 285 90 q 308 69 285 80 q 375 49 331 59 l 375 0 l 33 0 l 33 49 q 99 70 77 61 q 122 90 122 79 l 122 467 q 120 509 122 493 q 111 533 119 524 q 85 546 103 542 q 33 554 67 550 l 33 602 q 93 610 65 605 q 147 620 121 615 q 197 634 173 626 q 246 651 221 641 l 274 622 l 282 524 q 430 621 361 592 q 552 651 499 651 q 608 641 581 651 q 656 612 635 632 q 689 558 676 591 q 702 477 702 524 l 702 90 q 706 81 702 86 q 720 72 710 77 q 748 62 730 67 q 792 49 765 56 l 792 0 l 449 0 "},"O":{"x_min":37,"x_max":812,"ha":864,"o":"m 641 427 q 624 562 641 496 q 577 677 607 627 q 504 757 546 727 q 409 787 461 787 q 323 762 360 787 q 260 693 285 738 q 221 583 234 648 q 209 435 209 517 q 226 292 209 359 q 275 177 244 226 q 347 100 306 128 q 435 72 388 72 q 517 93 479 72 q 582 159 555 115 q 625 270 609 204 q 641 427 641 337 m 812 439 q 797 319 812 377 q 755 210 782 262 q 691 117 728 159 q 608 44 654 74 q 511 -3 563 13 q 405 -20 460 -20 q 251 15 319 -20 q 135 112 182 51 q 62 251 87 172 q 37 415 37 329 q 67 590 37 507 q 151 737 97 674 q 280 837 205 800 q 444 875 355 875 q 602 838 534 875 q 717 740 670 801 q 788 600 764 679 q 812 439 812 521 "},"3":{"x_min":52.28125,"x_max":621,"ha":703,"o":"m 621 258 q 599 150 621 201 q 536 62 577 100 q 438 2 495 24 q 312 -20 381 -20 q 253 -13 285 -20 q 185 6 220 -7 q 117 41 151 20 q 52 91 82 62 l 80 157 q 138 118 110 134 q 191 92 166 102 q 242 78 217 82 q 293 74 267 74 q 353 84 324 74 q 401 115 381 94 q 434 167 422 135 q 447 242 447 198 q 432 320 447 288 q 395 371 417 352 q 346 399 372 391 q 298 408 321 408 l 283 408 q 271 407 277 408 q 259 406 266 406 q 242 403 252 405 l 230 464 q 323 501 288 480 q 377 546 358 522 q 402 593 396 569 q 408 637 408 616 q 403 683 408 661 q 387 723 398 705 q 358 751 376 740 q 315 762 340 762 q 281 753 296 762 q 255 729 265 744 q 241 693 245 714 q 244 650 238 673 q 212 634 230 641 q 174 620 194 627 q 134 609 154 614 q 94 603 113 604 l 71 644 q 92 707 71 673 q 150 769 112 740 q 239 818 187 798 q 353 838 291 838 q 459 821 415 838 q 529 778 502 805 q 569 718 556 751 q 582 650 582 684 q 571 597 582 624 q 542 547 561 571 q 496 503 523 523 q 438 473 470 484 q 513 451 479 469 q 570 403 547 432 q 607 337 594 374 q 621 258 621 300 "},"]":{"x_min":16.75,"x_max":383,"ha":468,"o":"m 45 -227 l 18 -204 q 22 -184 19 -195 q 28 -162 25 -172 q 35 -142 32 -151 q 41 -129 39 -133 l 227 -129 l 227 987 l 45 987 l 16 1011 q 21 1028 18 1018 q 28 1049 24 1038 q 35 1069 31 1060 q 41 1085 39 1078 l 383 1085 l 383 -227 l 45 -227 "},"m":{"x_min":32.484375,"x_max":1157.625,"ha":1173,"o":"m 820 0 l 820 49 q 860 61 844 55 q 884 72 875 67 q 895 81 892 77 q 899 90 899 86 l 899 408 q 894 475 899 449 q 881 512 890 500 q 859 529 873 525 q 827 534 846 534 q 758 512 798 534 q 674 449 718 491 l 674 90 q 677 81 674 86 q 689 72 680 77 q 716 62 699 67 q 759 49 733 56 l 759 0 l 431 0 l 431 49 q 471 61 456 55 q 495 72 487 67 q 507 81 504 77 q 511 90 511 86 l 511 408 q 507 475 511 449 q 496 512 504 500 q 476 529 488 525 q 444 534 463 534 q 374 513 413 534 q 285 449 335 493 l 285 90 q 305 69 285 80 q 369 49 325 58 l 369 0 l 32 0 l 32 49 q 99 70 77 61 q 122 90 122 79 l 122 467 q 120 509 122 494 q 110 534 118 525 q 83 546 101 542 q 32 554 65 550 l 32 602 q 96 610 67 606 q 150 621 124 615 q 198 635 175 627 q 246 651 221 642 l 274 622 l 282 538 q 352 593 320 571 q 413 628 384 615 q 467 645 441 640 q 517 651 493 651 q 575 642 550 651 q 618 620 600 634 q 646 588 635 606 q 661 547 657 569 l 663 538 q 734 593 701 571 q 795 627 766 614 q 850 645 824 640 q 901 651 876 651 q 962 641 933 651 q 1014 612 992 632 q 1049 558 1036 591 q 1062 477 1062 524 l 1062 90 q 1083 72 1062 81 q 1157 49 1104 63 l 1157 0 l 820 0 "},"9":{"x_min":58,"x_max":651,"ha":703,"o":"m 346 387 q 418 407 385 387 q 477 457 451 427 q 463 607 475 549 q 432 696 451 664 q 391 740 414 728 q 346 752 369 752 q 257 706 289 752 q 226 581 226 661 q 238 486 226 524 q 269 427 251 449 q 308 395 287 404 q 346 387 329 387 m 651 496 q 619 303 651 392 q 523 145 587 214 q 363 31 459 76 q 139 -29 267 -14 l 122 31 q 281 87 216 54 q 385 162 345 120 q 446 254 426 204 q 473 361 466 304 q 394 306 437 326 q 302 287 350 287 q 197 307 243 287 q 120 362 151 327 q 73 442 89 396 q 58 539 58 488 q 68 608 58 573 q 97 677 78 644 q 143 740 116 711 q 204 791 170 769 q 278 825 238 812 q 363 838 318 838 q 478 818 426 838 q 570 756 531 798 q 629 650 608 715 q 651 496 651 586 "},"l":{"x_min":36,"x_max":391.984375,"ha":417,"o":"m 36 0 l 36 49 q 83 59 65 54 q 113 69 102 64 q 127 80 123 74 q 132 90 132 85 l 132 858 q 128 905 132 888 q 115 931 125 922 q 88 942 106 939 q 43 949 71 945 l 43 996 q 106 1006 76 1001 q 161 1017 135 1011 q 213 1032 187 1023 q 265 1051 239 1040 l 295 1023 l 295 90 q 299 80 295 85 q 315 69 304 75 q 345 59 326 64 q 391 49 364 54 l 391 0 l 36 0 "},"8":{"x_min":54,"x_max":648,"ha":702,"o":"m 242 644 q 253 599 242 618 q 285 564 265 579 q 331 535 305 548 q 388 510 358 522 q 447 636 447 571 q 437 695 447 671 q 412 733 428 718 q 377 753 397 747 q 335 759 357 759 q 295 749 313 759 q 266 724 278 740 q 248 688 254 708 q 242 644 242 667 m 474 209 q 461 277 474 248 q 426 328 448 306 q 375 365 404 349 q 316 395 347 381 q 277 353 294 374 q 250 311 261 332 q 234 265 239 289 q 229 213 229 241 q 239 150 229 178 q 268 102 250 122 q 310 73 287 83 q 359 63 334 63 q 408 74 386 63 q 444 106 430 86 q 466 153 459 126 q 474 209 474 179 m 648 239 q 623 139 648 186 q 557 56 599 92 q 458 0 515 21 q 336 -20 401 -20 q 214 -2 267 -20 q 126 45 161 15 q 72 113 90 74 q 54 193 54 151 q 67 262 54 228 q 105 325 81 295 q 164 381 130 355 q 239 429 198 407 q 182 459 209 443 q 134 498 155 475 q 101 550 113 520 q 89 620 89 580 q 110 707 89 667 q 168 776 131 747 q 254 821 205 805 q 361 838 304 838 q 473 824 425 838 q 552 787 520 810 q 599 730 583 763 q 615 657 615 696 q 603 606 615 631 q 572 559 592 582 q 526 516 553 537 q 468 475 499 496 q 535 439 503 459 q 593 391 568 418 q 633 325 618 363 q 648 239 648 288 "},"p":{"x_min":33,"x_max":733,"ha":777,"o":"m 580 289 q 566 401 580 354 q 530 477 552 447 q 479 521 508 507 q 422 536 451 536 q 398 533 410 536 q 371 522 386 530 q 335 499 356 514 q 285 460 314 484 l 285 155 q 347 121 320 134 q 393 103 373 109 q 429 95 413 97 q 462 94 445 94 q 510 106 488 94 q 547 144 531 119 q 571 205 563 169 q 580 289 580 242 m 733 339 q 721 250 733 294 q 689 167 709 207 q 642 92 669 127 q 587 33 616 58 q 527 -5 557 8 q 468 -20 496 -20 q 429 -15 449 -20 q 387 -2 409 -11 q 339 21 365 6 q 285 56 314 35 l 285 -234 q 310 -255 285 -245 q 399 -276 335 -266 l 399 -326 l 33 -326 l 33 -276 q 99 -255 77 -265 q 122 -234 122 -245 l 122 467 q 119 508 122 492 q 109 534 117 524 q 83 548 101 544 q 33 554 65 553 l 33 602 q 100 611 71 606 q 152 622 128 616 q 198 634 176 627 q 246 651 220 641 l 274 622 l 281 539 q 350 593 318 572 q 410 628 383 615 q 461 645 438 640 q 504 651 484 651 q 592 632 550 651 q 665 575 633 613 q 714 477 696 536 q 733 339 733 419 "},"4":{"x_min":37.703125,"x_max":649.484375,"ha":703,"o":"m 387 664 l 170 322 l 387 322 l 387 664 m 649 301 q 615 259 635 279 q 580 227 595 238 l 543 227 l 543 90 q 547 80 543 85 q 561 71 551 76 q 591 60 572 66 q 637 49 609 55 l 637 0 l 244 0 l 244 49 q 316 63 288 56 q 359 75 344 69 q 381 86 375 81 q 387 98 387 92 l 387 227 l 65 227 l 37 254 l 363 791 q 399 803 380 796 q 439 817 419 810 q 479 831 460 824 q 513 844 498 838 l 543 815 l 543 322 l 631 322 l 649 301 "},"R":{"x_min":20.265625,"x_max":843.71875,"ha":840,"o":"m 29 0 l 29 49 q 98 70 75 59 q 122 90 122 81 l 122 784 q 74 778 97 781 q 29 771 50 775 l 20 834 q 176 862 92 849 q 358 875 261 875 q 515 859 451 875 q 621 815 580 843 q 681 750 662 788 q 700 669 700 712 q 686 583 700 622 q 647 512 672 544 q 587 457 622 481 q 510 420 552 434 l 724 124 q 745 101 735 110 q 766 88 754 92 q 794 82 778 83 q 833 84 810 82 l 843 34 q 793 19 821 27 q 738 4 765 11 q 687 -5 710 -1 q 651 -10 664 -10 q 612 1 631 -10 q 584 27 594 12 l 390 397 q 376 396 383 396 l 363 396 q 328 398 346 396 q 292 404 310 400 l 292 90 q 314 70 292 82 q 385 49 336 59 l 385 0 l 29 0 m 329 803 q 310 802 320 803 q 292 802 301 802 l 292 479 q 323 475 310 475 q 352 474 337 474 q 486 520 443 474 q 529 648 529 566 q 519 708 529 679 q 487 757 510 736 q 426 790 464 778 q 329 803 387 803 "},"o":{"x_min":44,"x_max":685,"ha":729,"o":"m 514 298 q 502 400 514 352 q 471 485 491 448 q 422 544 451 522 q 358 566 393 566 q 289 547 316 566 q 245 495 261 528 q 222 418 228 463 q 216 320 216 373 q 228 220 216 267 q 262 139 241 174 q 311 84 283 104 q 371 65 339 65 q 438 80 411 65 q 482 125 465 96 q 506 199 499 155 q 514 298 514 242 m 685 329 q 672 240 685 283 q 638 158 660 196 q 585 86 616 119 q 518 30 555 53 q 439 -6 481 6 q 351 -20 396 -20 q 225 4 282 -20 q 128 71 168 28 q 66 173 88 114 q 44 301 44 232 q 68 431 44 368 q 137 543 93 494 q 243 621 182 592 q 378 651 305 651 q 504 626 447 651 q 601 559 560 602 q 663 457 641 516 q 685 329 685 398 "},"5":{"x_min":52.421875,"x_max":623,"ha":703,"o":"m 623 278 q 605 165 623 219 q 549 70 587 111 q 454 4 511 28 q 318 -20 396 -20 q 252 -13 287 -20 q 183 7 217 -6 q 115 40 148 20 q 52 88 81 61 l 86 149 q 153 108 122 124 q 211 83 184 93 q 260 71 238 74 q 303 68 283 68 q 365 81 337 68 q 414 119 394 95 q 446 177 434 143 q 458 248 458 210 q 446 330 458 294 q 412 389 434 365 q 360 426 390 413 q 293 439 330 439 q 199 422 238 439 q 124 379 160 406 l 92 401 q 101 460 96 426 q 113 531 107 493 q 124 610 118 569 q 135 688 130 650 q 143 759 139 726 q 148 817 146 793 l 504 817 q 539 818 524 817 q 565 823 554 820 q 587 829 577 825 l 612 804 q 592 777 604 793 q 566 744 580 760 q 540 713 553 727 q 519 694 527 700 l 226 694 q 222 648 225 674 q 215 597 219 623 q 207 549 211 572 q 200 511 203 526 q 268 531 231 524 q 349 539 306 539 q 468 516 417 539 q 554 458 520 494 q 605 374 588 421 q 623 278 623 327 "}}}
